<?xml version="1.0" standalone="no"?>
<!DOCTYPE svg PUBLIC "-//W3C//DTD SVG 20010904//EN"
 "http://www.w3.org/TR/2001/REC-SVG-20010904/DTD/svg10.dtd">
<svg version="1.0" xmlns="http://www.w3.org/2000/svg"
 width="512.000000pt" height="512.000000pt" viewBox="0 0 512.000000 512.000000"
 preserveAspectRatio="xMidYMid meet">
<metadata>
Created by potrace 1.11, written by Peter Selinger 2001-2013
</metadata>
<g transform="translate(0.000000,512.000000) scale(0.100000,-0.100000)"
fill="#000000" stroke="none">
<path d="M2480 5104 c-346 -63 -636 -304 -760 -632 -67 -174 -77 -431 -26
-607 89 -305 305 -545 591 -658 323 -128 683 -80 962 129 l72 54 47 -38 47
-37 3 -325 c2 -179 5 -343 8 -365 32 -249 37 -275 66 -400 11 -44 30 -115 44
-159 l25 -78 -42 5 c-23 3 -51 8 -62 11 -11 2 -27 5 -37 5 -9 1 -41 39 -73 86
-147 222 -378 373 -639 421 -146 26 -459 26 -533 -1 -7 -2 -33 25 -58 60 -68
96 -208 229 -315 300 -147 99 -294 161 -480 205 -123 28 -169 31 -540 35 -184
2 -359 6 -388 8 -69 7 -102 -19 -122 -95 -8 -29 -15 -57 -17 -63 -13 -44 -53
-253 -59 -305 -3 -36 -10 -90 -14 -120 -10 -76 -10 -400 1 -490 15 -129 21
-175 24 -180 2 -3 6 -24 10 -48 10 -70 62 -244 104 -349 130 -325 374 -830
566 -1173 24 -41 52 -93 65 -115 93 -170 118 -195 172 -182 21 6 155 90 168
106 3 3 21 18 40 32 50 37 159 144 212 209 57 68 149 214 174 275 11 25 24 45
30 45 6 0 37 -9 70 -21 97 -34 291 -86 384 -103 19 -3 44 -8 55 -10 11 -2 42
-7 68 -10 27 -4 57 -9 67 -11 94 -18 473 -25 655 -12 535 37 1152 208 1692
467 161 78 177 90 187 146 28 145 28 675 1 774 -2 8 -7 35 -10 60 -3 25 -10
61 -15 80 -5 19 -11 46 -14 60 -19 98 -71 256 -129 395 -92 218 -218 421 -437
705 -218 283 -245 333 -419 806 -93 251 -140 325 -257 400 -35 22 -54 42 -58
61 -14 54 -79 178 -131 248 -148 199 -314 313 -555 382 -106 30 -304 39 -420
17z m288 -159 c277 -35 540 -240 648 -505 62 -154 77 -337 39 -495 -18 -78
-26 -101 -53 -160 -117 -248 -327 -413 -600 -470 -75 -16 -249 -13 -330 5
-210 47 -401 182 -520 369 -41 63 -97 192 -106 247 -3 16 -9 49 -14 74 -12 69
-6 227 12 300 56 223 197 416 386 528 84 50 219 98 305 107 33 4 61 8 62 9 5
4 115 -2 171 -9z m946 -919 c19 -50 61 -161 92 -246 110 -300 185 -438 374
-680 109 -139 243 -330 292 -414 30 -51 144 -279 151 -301 3 -11 18 -51 32
-90 26 -68 80 -264 90 -328 3 -18 7 -43 10 -57 16 -87 28 -251 29 -390 0 -138
-11 -319 -20 -344 -12 -31 -375 -186 -659 -281 -174 -58 -412 -125 -496 -140
-19 -3 -63 -12 -99 -20 -79 -17 -168 -33 -235 -41 -27 -3 -61 -7 -75 -9 -144
-20 -595 -28 -730 -13 -230 27 -451 78 -650 153 -124 46 -165 51 -188 22 -5
-7 -26 -52 -45 -101 -72 -176 -203 -347 -371 -483 l-80 -64 -18 23 c-10 13
-18 27 -18 31 0 5 -8 21 -18 35 -11 15 -43 72 -72 127 -29 55 -66 125 -83 155
-186 341 -460 947 -512 1131 -17 62 -19 72 -40 174 -60 302 -49 665 30 1013
l16 69 32 -3 c18 -2 173 -5 345 -5 288 -1 376 -6 498 -33 216 -46 448 -177
595 -334 54 -58 80 -100 168 -273 57 -112 115 -215 129 -228 47 -43 131 -7
132 57 0 12 -23 67 -50 122 l-50 100 27 1 c16 0 37 3 48 5 31 7 245 8 297 1
142 -19 283 -68 388 -135 83 -52 190 -166 250 -265 30 -49 61 -92 69 -96 15
-8 79 -24 146 -36 72 -14 193 -17 226 -6 44 15 77 62 73 102 -2 17 -19 81 -38
142 -44 140 -71 251 -86 347 -6 41 -14 88 -16 103 -23 148 -32 430 -23 740 l4
118 -41 37 c-22 20 -57 50 -77 65 l-37 29 31 44 c115 167 179 360 181 541 l1
74 17 -27 c10 -15 34 -68 54 -118z"/>
<path d="M2570 4615 c-128 -25 -203 -67 -287 -158 -83 -92 -125 -200 -126
-327 -1 -194 109 -368 288 -451 81 -38 136 -49 226 -45 132 6 237 53 329 146
120 121 169 287 135 450 -44 204 -218 366 -415 386 -25 3 -54 6 -65 8 -11 2
-49 -2 -85 -9z m214 -186 c68 -32 131 -93 163 -157 24 -49 28 -69 28 -142 0
-71 -4 -94 -26 -140 -89 -187 -316 -247 -488 -130 -93 63 -140 161 -136 280 3
81 17 122 64 187 84 116 266 163 395 102z"/>
<path d="M1779 1797 c-26 -20 -41 -57 -34 -85 17 -69 338 -298 590 -421 279
-137 520 -190 759 -166 123 12 326 91 366 142 22 28 20 76 -5 103 -32 35 -61
33 -148 -8 -45 -22 -113 -48 -152 -57 -85 -22 -249 -25 -350 -5 -242 46 -548
196 -803 393 -51 40 -107 82 -124 95 -34 24 -74 28 -99 9z"/>
</g>
</svg>
